# xmcd
#
# Track frame offsets: 
#        150
#        28595
#        49795
#        76367
#        100540
#        122320
#        143052
#        162397
#        185842
#        203520
#        236842
#
# Disc length: 3479 seconds
#
# Revision: 2
# Processed by: cddbd v1.5.2PL0 Copyright (c) Steve Scherf et al.
# Submitted via: ExactAudioCopy v0.99pb5
#
DISCID=890d950b
DTITLE=Dave Santiago and Latin Affair - Dave Santiago and Latin Affair
DYEAR=2004
DGENRE=Salsa
TTITLE0=Chibola
TTITLE1=Infiel Amante
TTITLE2=La Botija De Abuelito
TTITLE3=La Peluca
TTITLE4=Arrepentida
TTITLE5=Suavito Asi
TTITLE6=Averiguao
TTITLE7=Musica
TTITLE8=De La Montaña
TTITLE9=Descarga Cuatro Y Tres
TTITLE10=Infiel Amante (Club Mix)
EXTD=YEAR: 2004
EXTT0=
EXTT1=
EXTT2=
EXTT3=
EXTT4=
EXTT5=
EXTT6=
EXTT7=
EXTT8=
EXTT9=
EXTT10=
PLAYORDER=
